<svg width="20" height="20" viewBox="0 0 20 20" fill="none" xmlns="http://www.w3.org/2000/svg">
<path d="M15.834 9.58301C15.834 6.13092 13.0361 3.33301 9.58398 3.33301C6.1319 3.33301 3.33398 6.13092 3.33398 9.58301C3.33398 13.0351 6.1319 15.833 9.58398 15.833C9.0944 15.833 8.60544 15.5877 8.31169 15.0974C6.30474 11.7467 6.30474 7.41964 8.31169 4.06895C8.89919 3.0877 10.2686 3.0877 10.8568 4.06895C11.8596 5.74395 12.3617 7.66339 12.3617 9.58283M3.68814 7.49981H15.4798M3.68809 11.6661H9.58392M16.5284 16.5274L15.2346 15.2336M13.7506 11.6663C14.9013 11.6663 15.8339 12.599 15.8339 13.7497C15.8339 14.9004 14.9013 15.833 13.7506 15.833C12.5999 15.833 11.6673 14.9004 11.6673 13.7497C11.6673 12.599 12.5999 11.6663 13.7506 11.6663Z" stroke="#003D76" stroke-width="1.25" stroke-linecap="round" stroke-linejoin="round"/>
</svg>
