<svg width="20" height="21" viewBox="0 0 20 21" fill="none" xmlns="http://www.w3.org/2000/svg">
<path fill-rule="evenodd" clip-rule="evenodd" d="M10 3V3C14.1425 3 17.5 6.3575 17.5 10.5V10.5C17.5 14.6425 14.1425 18 10 18V18C5.8575 18 2.5 14.6425 2.5 10.5V10.5C2.5 6.3575 5.8575 3 10 3Z" stroke="#323438" stroke-width="1.25" stroke-linecap="round" stroke-linejoin="round"/>
<path d="M9.16602 13.4178H11.0913" stroke="#323438" stroke-width="1.25" stroke-linecap="round" stroke-linejoin="round"/>
<path d="M10.1326 13.4181V9.875H9.17383" stroke="#323438" stroke-width="1.25" stroke-linecap="round" stroke-linejoin="round"/>
<path d="M10.0842 7.37192C10.0842 7.48703 9.99093 7.58034 9.87582 7.58034C9.76072 7.58034 9.6674 7.48703 9.6674 7.37192C9.6674 7.25681 9.76072 7.1635 9.87582 7.1635" stroke="#323438" stroke-width="1.25" stroke-linecap="round" stroke-linejoin="round"/>
<path d="M9.87513 7.16322C9.99024 7.16322 10.0836 7.25653 10.0836 7.37164" stroke="#323438" stroke-width="1.25" stroke-linecap="round" stroke-linejoin="round"/>
</svg>
