<svg width="16" height="17" viewBox="0 0 16 17" fill="none" xmlns="http://www.w3.org/2000/svg">
<path fill-rule="evenodd" clip-rule="evenodd" d="M12.813 4.51461L7.25586 4.48428L9.20955 0.625C10.8882 0.893679 12.4358 1.69865 13.6228 2.92047L12.8168 4.51461H12.813Z" fill="#FF922D"/>
<path fill-rule="evenodd" clip-rule="evenodd" d="M14.1891 3.68308C15.9559 6.06386 16.3674 9.12512 15.1027 11.8338C14.503 13.1236 13.5662 14.226 12.3922 15.0236C11.2181 15.8212 9.85064 16.2842 8.43532 16.3634C7.02001 16.4425 5.6098 16.1348 4.3548 15.473C3.09981 14.8112 2.04698 13.8201 1.30839 12.6052C0.569804 11.3902 0.173087 9.99692 0.160467 8.57353C0.147847 7.15015 0.519797 5.74996 1.23673 4.522C1.95366 3.29404 2.98874 2.28426 4.23181 1.60014C5.47487 0.916016 6.8794 0.583154 8.29589 0.636979L2.02709 12.9237L9.45301 12.9636L14.1966 3.6755L14.1891 3.68308Z" fill="#2B0E72"/>
<path fill-rule="evenodd" clip-rule="evenodd" d="M8.90873 12.2238L3.35156 12.1934L6.80969 5.36768L12.365 5.39611L8.90873 12.2238Z" fill="#2B0E72"/>
</svg>
