<svg width="20" height="20" viewBox="0 0 20 20" fill="none" xmlns="http://www.w3.org/2000/svg">
<path d="M15.4196 10.0028C15.4196 10.233 15.233 10.4196 15.0028 10.4196C14.7726 10.4196 14.5859 10.233 14.5859 10.0028C14.5859 9.77256 14.7726 9.58594 15.0028 9.58594C15.233 9.58594 15.4196 9.77256 15.4196 10.0028" stroke="#255494" stroke-width="1.25" stroke-linecap="round" stroke-linejoin="round"/>
<path d="M10.4177 10.0028C10.4177 10.233 10.231 10.4196 10.0008 10.4196C9.77061 10.4196 9.58398 10.233 9.58398 10.0028C9.58398 9.77256 9.77061 9.58594 10.0008 9.58594C10.231 9.58594 10.4177 9.77256 10.4177 10.0028" stroke="#255494" stroke-width="1.25" stroke-linecap="round" stroke-linejoin="round"/>
<path d="M5.41571 10.0028C5.41571 10.233 5.22909 10.4196 4.99887 10.4196C4.76866 10.4196 4.58203 10.233 4.58203 10.0028C4.58203 9.77256 4.76866 9.58594 4.99887 9.58594C5.22909 9.58594 5.41571 9.77256 5.41571 10.0028" stroke="#255494" stroke-width="1.25" stroke-linecap="round" stroke-linejoin="round"/>
</svg>
