<svg width="20" height="20" viewBox="0 0 20 20" fill="none" xmlns="http://www.w3.org/2000/svg">
<path d="M4.52132 13.0605C3.60001 13.0605 2.85352 13.8172 2.85352 14.7505V15.5538C2.85352 16.4872 3.60001 17.2438 4.52132 17.2438H16.099C17.0203 17.2438 17.7668 16.4872 17.7668 15.5538V14.4892C17.7668 13.7002 17.1272 13.0606 16.3382 13.0606H13.5162" stroke="#003D76" stroke-width="1.25" stroke-linecap="round" stroke-linejoin="round"/>
<path d="M6.85547 13.8349L9.94666 13.0574C10.0925 13.0207 10.225 12.9449 10.3319 12.8382L17.2832 5.84652C17.9302 5.19569 17.9302 4.14069 17.2832 3.48986L17.1407 3.34652C16.4936 2.69569 15.4447 2.69569 14.7976 3.34652L7.84637 10.3382C7.74032 10.4449 7.66493 10.579 7.62847 10.7257L6.85547 13.8349" stroke="#003D76" stroke-width="1.25" stroke-linecap="round" stroke-linejoin="round"/>
<path d="M13.4863 4.66602L15.9719 7.16602" stroke="#003D76" stroke-width="1.25" stroke-linecap="round" stroke-linejoin="round"/>
<path d="M9.93769 13.0608C9.94928 12.9725 9.9642 12.885 9.9642 12.7933C9.9642 11.6425 9.03709 10.71 7.89291 10.71C7.80177 10.71 7.71478 10.7258 7.62695 10.7366" stroke="#003D76" stroke-width="1.25" stroke-linecap="round" stroke-linejoin="round"/>
</svg>
