<svg width="20" height="21" viewBox="0 0 20 21" fill="none" xmlns="http://www.w3.org/2000/svg">
<path fill-rule="evenodd" clip-rule="evenodd" d="M11.5903 8.909C12.469 9.78768 12.469 11.2123 11.5903 12.091C10.7116 12.9697 9.28702 12.9697 8.40834 12.091C7.52966 11.2123 7.52966 9.78768 8.40834 8.909C9.28702 8.03032 10.7116 8.03032 11.5903 8.909Z" stroke="#003D76" stroke-width="1.25" stroke-linecap="round" stroke-linejoin="round"/>
<path fill-rule="evenodd" clip-rule="evenodd" d="M4.37432 10.5C4.37432 10.7475 4.39682 10.995 4.42682 11.235L3.10349 12.27C2.81016 12.5 2.73016 12.9108 2.91682 13.2333L4.09349 15.2692C4.27932 15.5917 4.67432 15.7275 5.02016 15.5892L6.20516 15.1133C6.43932 15.0192 6.70016 15.0567 6.91016 15.1958C7.09349 15.3175 7.28349 15.4292 7.48016 15.5292C7.70516 15.6433 7.86849 15.8475 7.90432 16.0975L8.08516 17.3583C8.13766 17.7267 8.45349 18 8.82516 18H11.1727C11.5443 18 11.8602 17.7267 11.9127 17.3583L12.0935 16.0983C12.1293 15.8483 12.2943 15.6425 12.5202 15.5292C12.716 15.4308 12.9052 15.32 13.0877 15.1992C13.2993 15.0592 13.561 15.0192 13.796 15.1142L14.9785 15.5892C15.3235 15.7275 15.7185 15.5917 15.9052 15.2692L17.0818 13.2333C17.2685 12.9108 17.1885 12.4992 16.8952 12.27L15.5718 11.235C15.6018 10.995 15.6243 10.7475 15.6243 10.5C15.6243 10.2525 15.6018 10.005 15.5718 9.765L16.8952 8.73C17.1885 8.5 17.2685 8.08917 17.0818 7.76667L15.9052 5.73083C15.7193 5.40833 15.3243 5.2725 14.9785 5.41083L13.796 5.88583C13.561 5.98 13.2993 5.94083 13.0877 5.80083C12.9052 5.68 12.716 5.56917 12.5202 5.47083C12.2943 5.3575 12.1293 5.15167 12.0935 4.90167L11.9135 3.64167C11.861 3.27333 11.5452 3 11.1735 3H8.82599C8.45432 3 8.13849 3.27333 8.08599 3.64167L7.90432 4.90333C7.86849 5.1525 7.70432 5.3575 7.48016 5.47167C7.28349 5.57167 7.09349 5.68417 6.91016 5.805C6.69932 5.94333 6.43849 5.98083 6.20432 5.88667L5.02016 5.41083C4.67432 5.2725 4.27932 5.40833 4.09349 5.73083L2.91682 7.76667C2.73016 8.08917 2.81016 8.50083 3.10349 8.73L4.42682 9.765C4.39682 10.005 4.37432 10.2525 4.37432 10.5Z" stroke="#003D76" stroke-width="1.25" stroke-linecap="round" stroke-linejoin="round"/>
</svg>
