<svg width="20" height="20" viewBox="0 0 20 20" fill="none" xmlns="http://www.w3.org/2000/svg">
<path fill-rule="evenodd" clip-rule="evenodd" d="M5.83268 17.5H14.5827C15.7333 17.5 16.666 16.5673 16.666 15.4167V6.97639C16.666 6.31335 16.4026 5.67747 15.9338 5.20862L13.9574 3.23223C13.4886 2.76339 12.8527 2.5 12.1896 2.5H6.24935C5.09876 2.5 4.16602 3.43274 4.16602 4.58333V15.8333C4.16602 16.7538 4.91221 17.5 5.83268 17.5Z" stroke="#003D76" stroke-width="1.25" stroke-linecap="round" stroke-linejoin="round"/>
<path d="M16.647 6.66651H13.75C13.0596 6.66651 12.5 6.10687 12.5 5.41651V2.51953" stroke="#003D76" stroke-width="1.25" stroke-linecap="round" stroke-linejoin="round"/>
<path d="M11.668 13.3337H13.3346" stroke="#003D76" stroke-width="1.25" stroke-linecap="round" stroke-linejoin="round"/>
<path d="M7.5 13.1292L8.05295 13.6274L9.16667 12.625" stroke="#003D76" stroke-width="1.25" stroke-linecap="round" stroke-linejoin="round"/>
<path d="M11.668 9.99967H13.3346" stroke="#003D76" stroke-width="1.25" stroke-linecap="round" stroke-linejoin="round"/>
<path d="M7.5 9.79443L8.05315 10.2928L9.16667 9.29004" stroke="#003D76" stroke-width="1.25" stroke-linecap="round" stroke-linejoin="round"/>
</svg>
