<svg width="20" height="21" viewBox="0 0 20 21" fill="none" xmlns="http://www.w3.org/2000/svg">
<path d="M17.7707 10.9133V15.8341C17.7707 16.7674 17.0242 17.5241 16.1029 17.5241H4.52523C3.60392 17.5241 2.85742 16.7674 2.85742 15.8341V5.04742C2.85742 4.11409 3.60392 3.35742 4.52523 3.35742H10.3141" stroke="#003D76" stroke-width="1.25" stroke-linecap="round" stroke-linejoin="round"/>
<path d="M6.85742 14.3339L9.94862 13.5564C10.0944 13.5197 10.227 13.4439 10.3339 13.3372L17.2851 6.34555C17.9322 5.69471 17.9322 4.63971 17.2851 3.98888L17.1426 3.84555C16.4956 3.19471 15.4467 3.19471 14.7996 3.84555L7.84833 10.8372C7.74228 10.9439 7.66688 11.078 7.63043 11.2247L6.85742 14.3339" stroke="#003D76" stroke-width="1.25" stroke-linecap="round" stroke-linejoin="round"/>
<path d="M13.4863 5.16504L15.9719 7.66504" stroke="#003D76" stroke-width="1.25" stroke-linecap="round" stroke-linejoin="round"/>
<path d="M9.93769 13.5588C9.94928 13.4705 9.9642 13.383 9.9642 13.2913C9.9642 12.1405 9.03709 11.208 7.89291 11.208C7.80177 11.208 7.71478 11.2238 7.62695 11.2347" stroke="#003D76" stroke-width="1.25" stroke-linecap="round" stroke-linejoin="round"/>
</svg>
