<svg width="20" height="21" viewBox="0 0 20 21" fill="none" xmlns="http://www.w3.org/2000/svg">
<path d="M9.86133 13.001L14.028 17.1676C14.718 17.8576 15.838 17.8576 16.528 17.1676V17.1676C17.218 16.4776 17.218 15.3576 16.528 14.6676L12.3613 10.501" stroke="#323438" stroke-width="1.25" stroke-linecap="round" stroke-linejoin="round"/>
<path fill-rule="evenodd" clip-rule="evenodd" d="M17.4294 5.37289C17.4494 5.39206 17.4644 5.41706 17.4719 5.44372C17.8636 6.74956 17.5603 8.21872 16.5286 9.25039C15.4861 10.2929 13.9969 10.5912 12.6811 10.1812L5.72527 17.1371C5.04777 17.8146 3.94277 17.8654 3.24194 17.2121C2.50527 16.5262 2.49027 15.3729 3.19527 14.6671L10.1811 7.68122C9.77111 6.36539 10.0694 4.87622 11.1119 3.83372C12.1436 2.80206 13.6128 2.49872 14.9186 2.89039C14.9453 2.89872 14.9703 2.91289 14.9894 2.93289L15.1244 3.06789C15.1894 3.13289 15.1894 3.23872 15.1244 3.30372L12.9286 5.50039L14.8619 7.43372L17.0586 5.23706C17.1236 5.17206 17.2294 5.17206 17.2944 5.23706L17.4294 5.37289V5.37289Z" stroke="#323438" stroke-width="1.25" stroke-linecap="round" stroke-linejoin="round"/>
<path fill-rule="evenodd" clip-rule="evenodd" d="M2.44329 4.07779L3.00495 5.76362C3.11829 6.10446 3.43662 6.33362 3.79579 6.33362H5.69495V4.43446C5.69495 4.07612 5.46579 3.75696 5.12495 3.64362L3.43912 3.08196C3.28912 3.03196 3.12412 3.07112 3.01245 3.18279L2.54412 3.65112C2.43245 3.76279 2.39329 3.92779 2.44329 4.07779V4.07779Z" stroke="#323438" stroke-width="1.25" stroke-linecap="round" stroke-linejoin="round"/>
<path d="M5.69922 6.33398L8.61589 9.25065" stroke="#323438" stroke-width="1.25" stroke-linecap="round" stroke-linejoin="round"/>
</svg>
